<svg width="79" height="72" viewBox="0 0 79 72" fill="none" xmlns="http://www.w3.org/2000/svg">
<path d="M62.4834 28.064C62.4834 28.064 70.9236 39.776 73.2984 37.6533C83.0544 28.9387 76.069 14.3147 75.7588 14.752L62.4834 28.064Z" fill="white" stroke="#0DAABE" stroke-miterlimit="10"/>
<path d="M71.5991 47.0912C69.9547 48.1463 68.2894 48.1463 67.0326 47.8852C65.9014 47.6449 64.875 47.039 64.0685 46.2137L49.0913 30.9202C48.9237 30.753 48.6514 30.7426 48.4733 30.8993L48.1486 31.1918C47.9601 31.3589 47.9496 31.6514 48.1277 31.829L63.8905 47.8643C64.7284 48.7209 65.252 49.8387 65.3463 51.04C65.472 52.5756 65.3463 54.5813 64.0895 55.5946C63.4296 56.1274 62.5813 56.3677 61.712 56.4304C59.5544 56.5975 57.4492 55.72 55.9305 54.1844L40.5343 38.6296C40.3667 38.4625 40.0944 38.452 39.9268 38.6087L39.665 38.8386C39.4765 39.0057 39.466 39.2982 39.6441 39.4758L55.2812 55.5111C56.0772 56.3259 56.5799 57.381 56.6742 58.5092C56.7998 59.9404 56.6218 61.8312 55.1974 63.0638C55.1764 63.0847 55.145 63.1056 55.1241 63.1265C53.3121 64.6621 50.6309 64.5995 48.8189 63.0534L43.3098 57.3496L44.6295 58.7599C44.6295 58.6659 43.6555 57.8093 43.6555 57.8093C43.6555 57.8093 43.9068 58.3003 42.7128 56.9004C42.0006 56.0752 44.8285 57.0154 44.043 56.8378C43.1632 56.5035 42.2729 56.5139 41.5712 56.6184C41.4455 56.6393 41.3094 56.6079 41.2151 56.5139L39.7802 55.2812C39.8012 55.2081 39.8012 55.1141 39.8116 55.0201C39.9059 54.1008 39.7488 52.6174 38.3558 50.9878C37.7902 50.3296 37.1723 49.9327 36.5543 49.7029C35.2975 48.982 33.9464 49.0656 33.0457 49.2641C32.9095 49.2954 32.7629 49.2641 32.6582 49.1701L31.4013 48.0941L31.4746 48.021C31.4746 48.021 31.4956 47.9896 31.5165 47.9165C31.6946 47.436 32.2706 45.3676 30.2492 42.9962C29.7674 42.4321 29.2438 42.0561 28.7096 41.8158C26.4473 40.1548 23.7137 41.4711 23.7137 41.4711H23.7032L23.211 41.0532L23.3471 40.907L23.8394 40.3951C23.8394 40.3951 23.9127 40.3011 23.9336 40.2488C24.1222 39.7683 24.9077 37.4178 22.6663 35.3181C22.1845 34.8585 21.7656 34.4615 21.2943 34.2212C18.5711 32.4662 17.5028 33.7198 17.1886 34.2839C17.1048 34.4302 16.9582 34.5137 16.8011 34.5137H16.3612C16.1832 34.5137 16.0156 34.6286 15.9527 34.7958L15.2824 36.5299C15.2615 36.5821 15.2301 36.6344 15.1777 36.6866L10.9149 40.9383C10.7474 41.1054 10.475 41.1159 10.3075 40.9592C7.85664 38.7236 -7.68621 23.3987 8.10801 8.05291C22.9386 -6.36317 37.3084 5.78604 39.6545 7.96934C39.8431 8.14693 39.8431 8.42898 39.6545 8.60657L21.7342 25.7074C21.5247 25.9059 21.5561 26.2402 21.797 26.3969C22.5197 26.8669 23.7032 27.5146 25.6094 28.4235C31.747 31.3276 37.3294 23.9942 37.5179 23.8375C37.5179 23.8375 37.5179 23.8375 37.5284 23.827L47.4993 12.8583C47.6878 12.6702 49.2379 15.1774 49.4055 15.3759L49.6883 15.731C49.6883 15.731 49.7092 15.7519 49.7197 15.7624L67.441 34.0123L71.222 37.8984C72.7407 39.4653 73.5995 41.586 73.411 43.7588C73.2958 45.0333 72.8245 46.2973 71.5886 47.0912H71.5991Z" fill="white"/>
<path d="M21.1699 25.76C35.023 9.80267 49.7853 -4.13866 65.1681 4.36267L51.9783 17.6107L48.63 14.4427C48.63 14.4427 39.5586 24.0853 34.3597 27.6053C29.3641 30.9867 24.4219 28.8533 21.1592 25.7493L21.1699 25.76Z" fill="white" stroke="#0DAABE" stroke-miterlimit="10"/>
<path d="M51.9463 17.5787L62.5581 28.1493L75.7051 14.5493C73.4266 10.496 69.7146 6.34666 65.1254 4.30933L51.9463 17.5787Z" fill="white" stroke="#0DAABE" stroke-miterlimit="10"/>
<path d="M24.9141 38.784C24.882 39.52 24.5611 40.2027 24.0476 40.736L23.8978 40.896L15.5218 49.6747C15.3079 49.8987 15.0725 50.08 14.8051 50.2293C13.8423 50.7733 11.5103 51.7227 9.26386 49.792C7.01741 47.8507 7.69135 45.0453 8.14064 43.8293C8.26901 43.4773 8.46156 43.1573 8.6969 42.8693L12.6442 38.2507L16.4846 34.1547L16.8376 33.7813C17.1478 33.4507 17.5329 33.184 17.9608 33.0133C18.7952 32.6827 20.2287 32.4267 21.844 33.408C22.336 33.7067 22.8495 34.0587 23.3202 34.6133C24.6895 36.256 24.9569 37.76 24.9141 38.784Z" fill="white" stroke="#0DAABE" stroke-miterlimit="10"/>
<path d="M31.9423 46.9867C31.9209 47.0613 31.8995 47.0933 31.8995 47.0933L31.8246 47.1787L23.1276 56.2773C22.443 56.992 21.5872 57.5467 20.6245 57.7813C19.4905 58.0587 17.9929 58.0267 16.5274 56.7573C14.7516 55.2213 14.8051 53.1307 15.126 51.7227C15.3186 50.88 15.7358 50.1013 16.292 49.4507L19.9184 45.216L24.422 40.4053H24.4327C24.4327 40.4053 26.7327 39.264 28.9256 40.288C29.5033 40.5547 30.0595 40.9707 30.5837 41.5787C32.766 44.1813 32.1348 46.4427 31.9423 46.9653V46.9867Z" fill="white" stroke="#0DAABE" stroke-miterlimit="10"/>
<path d="M39.5159 52.832C39.5052 52.9387 39.4945 53.0347 39.4731 53.12C39.4731 53.12 39.4731 53.12 39.4731 53.1307C39.3982 53.5787 39.1842 53.9947 38.8633 54.336L30.0701 63.552C29.931 63.7013 29.7706 63.8293 29.5994 63.936C28.765 64.448 26.2832 65.6427 23.8977 63.584C21.5122 61.5253 22.4215 58.5067 22.8494 57.4293C22.9457 57.1947 23.074 56.9707 23.2452 56.7787L27.2888 52.0427L31.4394 47.616C31.7068 47.328 32.0491 47.104 32.4342 46.9867C32.5198 46.9547 32.6268 46.9333 32.7337 46.9013C33.5467 46.688 34.7876 46.528 36.0178 46.9973C36.6918 47.2533 37.355 47.6907 37.9648 48.4053C39.4517 50.1867 39.6335 51.808 39.5266 52.8213L39.5159 52.832Z" fill="white" stroke="#0DAABE" stroke-miterlimit="10"/>
<path d="M45.4618 66.3493C43.6411 67.9824 39.4625 67.7664 40.1271 66.9196C40.9919 65.8135 45.9807 60.6894 46.1081 60.9314C46.6179 61.8992 47.4737 64.5433 45.4618 66.3493Z" fill="white" stroke="#0DAABE" stroke-miterlimit="10"/>
<path d="M46.9721 59.104C46.9721 59.2213 46.9721 59.328 46.9614 59.4347C46.9079 60.1813 46.694 60.64 46.694 60.64L37.3338 70.4534C37.3338 70.4534 34.2636 72.832 31.3325 70.304C28.4015 67.776 30.4554 63.7653 30.4554 63.7653L34.7236 58.7627L39.2486 53.952C39.2486 53.952 39.7942 53.6853 40.6072 53.536C41.2597 53.408 42.0727 53.3547 42.9178 53.568C43.7629 53.7707 44.6294 54.2293 45.3889 55.1467C46.6726 56.6827 46.9721 58.0907 46.9721 59.104Z" fill="white" stroke="#0DAABE" stroke-miterlimit="10"/>
</svg>
